<svg width="90" height="90" viewBox="0 0 90 90" fill="none" xmlns="http://www.w3.org/2000/svg">
<path fill-rule="evenodd" clip-rule="evenodd" d="M71 77C73.5574 77 75.1916 75.8084 77 74C78.8084 72.1916 80 70.5574 80 68C80 65.4426 78.8084 62.8084 77 61C75.1916 59.1916 73.5574 58 71 58C68.4426 58 65.8084 59.1916 64 61C62.1916 62.8084 61 65.4426 61 68C61 70.5574 62.1916 72.1916 64 74C65.8084 75.8084 68.4426 77 71 77ZM71 81C74.5804 81 77.4683 79.5317 80 77C82.5317 74.4683 84 71.5804 84 68C84 64.4196 82.5317 60.5317 80 58C77.4683 55.4683 74.5804 54 71 54C67.4196 54 63.5317 55.4683 61 58C58.4683 60.5317 57 64.4196 57 68C57 71.5804 58.4683 74.4683 61 77C63.5317 79.5317 67.4196 81 71 81Z" fill="#017F36"/>
<path fill-rule="evenodd" clip-rule="evenodd" d="M70 60C70.511 60 71.6387 60.6364 72 61C72.3613 61.3636 72 61.4857 72 62V66L73 68C73.351 68.3657 74.0044 68.4916 74 69C73.9956 69.5084 73.3572 69.6405 73 70C72.6428 70.3595 72.5052 70.9956 72 71C71.4948 71.0044 71.3634 70.3532 71 70L68 68V62C68 61.4857 68.6387 61.3636 69 61C69.3613 60.6364 69.489 60 70 60ZM30 44H26V48H30V44ZM26 40C24.978 40 23.7227 40.2727 23 41C22.2773 41.7273 22 42.9715 22 44V48C22 49.0285 22.2773 49.2727 23 50C23.7227 50.7273 24.978 52 26 52H30C31.022 52 31.2773 50.7273 32 50C32.7227 49.2727 34 49.0285 34 48V44C34 42.9715 32.7227 41.7273 32 41C31.2773 40.2727 31.022 40 30 40H26ZM45 44H41V48H45V44ZM41 40C39.978 40 39.7227 40.2727 39 41C38.2773 41.7273 37 42.9715 37 44V48C37 49.0285 38.2773 49.2727 39 50C39.7227 50.7273 39.978 52 41 52H45C46.022 52 47.2773 50.7273 48 50C48.7227 49.2727 49 49.0285 49 48V44C49 42.9715 48.7227 41.7273 48 41C47.2773 40.2727 46.022 40 45 40H41ZM61 44H57V48H61V44ZM57 40C55.978 40 54.7227 40.2727 54 41C53.2773 41.7273 53 42.9715 53 44V48C53 49.0285 53.2773 49.2727 54 50C54.7227 50.7273 55.978 52 57 52H61C62.022 52 62.2773 50.7273 63 50C63.7227 49.2727 64 49.0285 64 48V44C64 42.9715 63.7227 41.7273 63 41C62.2773 40.2727 62.022 40 61 40H57ZM30 59H26V63H30V59ZM26 56C24.978 56 23.7227 56.2727 23 57C22.2773 57.7273 22 57.9715 22 59V63C22 64.0285 22.2773 65.2727 23 66C23.7227 66.7273 24.978 67 26 67H30C31.022 67 31.2773 66.7273 32 66C32.7227 65.2727 34 64.0285 34 63V59C34 57.9715 32.7227 57.7273 32 57C31.2773 56.2727 31.022 56 30 56H26ZM45 59H41V63H45V59ZM41 56C39.978 56 39.7227 56.2727 39 57C38.2773 57.7273 37 57.9715 37 59V63C37 64.0285 38.2773 65.2727 39 66C39.7227 66.7273 39.978 67 41 67H45C46.022 67 47.2773 66.7273 48 66C48.7227 65.2727 49 64.0285 49 63V59C49 57.9715 48.7227 57.7273 48 57C47.2773 56.2727 46.022 56 45 56H41Z" fill="#017F36"/>
<path fill-rule="evenodd" clip-rule="evenodd" d="M18 23C18 22.4872 17.6374 21.3626 18 21C18.3626 20.6374 19.4872 21 20 21H29V17H20C18.4617 17 17.0877 17.9123 16 19C14.9123 20.0877 14 21.4617 14 23V69C14 70.5383 14.9123 71.9123 16 73C17.0877 74.0877 18.4617 75 20 75H59C58.1755 73.8191 57.4113 72.3803 57 71H20C19.4872 71 18.3626 71.3626 18 71C17.6374 70.6374 18 69.5128 18 69V23ZM68 54C69.2824 53.8166 70.7176 53.8166 72 54V23C72 21.4617 71.0877 20.0877 70 19C68.9123 17.9123 67.5383 17 66 17H60V21H66C66.5128 21 67.6374 20.6374 68 21C68.3626 21.3626 68 22.4872 68 23V54ZM33 21H54V17H33V21Z" fill="#017F36"/>
<path fill-rule="evenodd" clip-rule="evenodd" d="M57 17H33V23C33 23.5304 33.3617 23.6249 33 24C32.6383 24.3751 31.5115 25 31 25C30.4885 25 30.3617 24.3751 30 24C29.6383 23.6249 30 23.5304 30 23V17H20C18.977 17 17.7234 17.2499 17 18C16.2766 18.7501 16 19.9391 16 21V31C16 32.0609 16.2766 33.2499 17 34C17.7234 34.7501 18.977 35 20 35H66C67.023 35 68.2766 34.7501 69 34C69.7234 33.2499 70 32.0609 70 31V21C70 19.9391 69.7234 18.7501 69 18C68.2766 17.2499 67.023 17 66 17H60V23C60 23.5304 60.3617 23.6249 60 24C59.6383 24.3751 58.5115 25 58 25C57.4885 25 57.3617 24.3751 57 24C56.6383 23.6249 57 23.5304 57 23V17Z" fill="#017F36"/>
<path fill-rule="evenodd" clip-rule="evenodd" d="M72 34H18V30H72V34Z" fill="#017F36"/>
<path d="M26 13C26 12.4696 26.6366 12.3751 27 12C27.3634 11.6249 27.4861 11 28 11C28.5139 11 28.6366 11.6249 29 12C29.3634 12.3751 30 12.4696 30 13V21C30 21.5304 29.3634 21.6249 29 22C28.6366 22.3751 28.5139 23 28 23C27.4861 23 27.3634 22.3751 27 22C26.6366 21.6249 26 21.5304 26 21V13ZM53 13C53 12.4696 53.6366 12.3751 54 12C54.3634 11.6249 54.4861 11 55 11C55.5139 11 55.6366 11.6249 56 12C56.3634 12.3751 57 12.4696 57 13V21C57 21.5304 56.3634 21.6249 56 22C55.6366 22.3751 55.5139 23 55 23C54.4861 23 54.3634 22.3751 54 22C53.6366 21.6249 53 21.5304 53 21V13Z" fill="#017F36"/>
</svg>
