<svg width="90" height="72" viewBox="0 0 90 72" fill="none" xmlns="http://www.w3.org/2000/svg">
<g clip-path="url(#clip0_309_358)">
<path d="M29 37C37.7047 37 45 29.7047 45 21C45 12.2953 37.7047 5 29 5C20.2953 5 13 12.2953 13 21C13 29.7047 20.2953 37 29 37ZM40 41H39C36.075 42.4062 32.4594 43 29 43C25.5406 43 21.9391 42.4062 19 41H18C9.05625 41 2 48.0563 2 57V61C2 64.7266 5.27344 68 9 68H49C52.7266 68 56 64.7266 56 61V57C56 48.0563 48.9437 41 40 41ZM70 37C77.4531 37 83 30.4531 83 23C83 15.5469 77.4531 10 70 10C62.5469 10 56 15.5469 56 23C56 30.4531 62.5469 37 70 37ZM76 41C74.0453 41.675 72.1937 42 70 42C67.8063 42 64.9547 41.675 63 41C60.1312 41 57.3203 41.6641 55 43C58.4313 46.6984 61 51.5719 61 57V63C61 63.3094 60.0141 63.7047 60 64H85C88.7266 64 92 60.7266 92 57C92 48.2953 84.7047 41 76 41Z" fill="#017F36"/>
</g>
<defs>
<clipPath id="clip0_309_358">
<rect width="90" height="72" fill="white"/>
</clipPath>
</defs>
</svg>
