<svg width="90" height="90" viewBox="0 0 90 90" fill="none" xmlns="http://www.w3.org/2000/svg">
<path d="M69 42H57C55.425 37.65 51.875 34 47 34C42.125 34 37.575 37.65 36 42H24C22.7625 42 17 41.125 17 34V31C17 24.1375 22.275 23 24 23H62C63.575 27.35 68.125 31 73 31C75.9837 31 78.8902 29.1098 81 27C83.1098 24.8902 84 21.9837 84 19C84 16.0163 83.1098 13.1098 81 11C78.8902 8.89022 75.9837 8 73 8C68.125 8 63.575 11.65 62 16H24C17.9625 16 9 19.975 9 31V34C9 45.025 17.9625 49 24 49H36C37.575 53.35 42.125 57 47 57C51.875 57 55.425 53.35 57 49H69C70.2375 49 77 49.875 77 57V61C77 67.8625 70.725 68 69 68H31C29.425 63.65 24.875 61 20 61C17.0163 61 14.1098 61.8902 12 64C9.89022 66.1098 9 69.0163 9 72C9 74.9837 9.89022 77.8902 12 80C14.1098 82.1098 17.0163 83 20 83C24.875 83 29.425 80.35 31 76H69C75.0375 76 84 71.9875 84 61V57C84 46.0125 75.0375 42 69 42ZM73 16C73.9946 16 74.2967 16.2967 75 17C75.7033 17.7033 77 18.0054 77 19C77 19.9946 75.7033 21.2967 75 22C74.2967 22.7033 73.9946 23 73 23C72.0054 23 70.7033 22.7033 70 22C69.2967 21.2967 69 19.9946 69 19C69 18.0054 69.2967 17.7033 70 17C70.7033 16.2967 72.0054 16 73 16ZM20 76C19.0054 76 18.7033 74.7033 18 74C17.2967 73.2967 17 72.9946 17 72C17 71.0054 17.2967 69.7033 18 69C18.7033 68.2967 19.0054 68 20 68C20.9946 68 22.2967 68.2967 23 69C23.7033 69.7033 24 71.0054 24 72C24 72.9946 23.7033 73.2967 23 74C22.2967 74.7033 20.9946 76 20 76Z" fill="#017F36"/>
</svg>
