<svg width="90" height="79" viewBox="0 0 90 79" fill="none" xmlns="http://www.w3.org/2000/svg">
<path d="M80 9H17C15.4699 9 14.0819 9.93254 13 11C11.9181 12.0675 11 13.4904 11 15V66C11 67.5096 11.9181 68.9325 13 70C14.0819 71.0675 15.4699 72 17 72H22C22.5462 72.0015 22.5397 72.2901 23 72C23.4603 71.7099 23.7718 70.4896 24 70C25.4114 67.0857 28.2307 64.7226 31 63C33.7693 61.2774 36.7263 61 40 61C43.2737 61 46.2307 61.2774 49 63C51.7693 64.7226 53.5886 67.0857 55 70C55.2282 70.4896 56.5397 71.7099 57 72C57.4603 72.2901 57.4538 72.0015 58 72H80C81.5301 72 82.9181 71.0675 84 70C85.0819 68.9325 86 67.5096 86 66V15C86 13.4904 85.0819 12.0675 84 11C82.9181 9.93254 81.5301 9 80 9ZM31 46C31 44.3113 32.0491 42.4041 33 41C33.9509 39.5959 35.4187 38.6462 37 38C38.5813 37.3538 40.3213 37.6706 42 38C43.6787 38.3294 44.7897 38.8059 46 40C47.2103 41.1941 47.6661 43.3438 48 45C48.3339 46.6562 48.655 48.4399 48 50C47.345 51.5601 46.4231 52.0618 45 53C43.5769 53.9382 41.7116 55 40 55C37.7078 54.9906 35.6209 53.5992 34 52C32.3791 50.4008 31.0095 48.2615 31 46ZM80 66H60C57.5924 61.9134 53.3507 58.9793 49 57C51.1836 55.0817 53.3056 52.8021 54 50C54.6944 47.1979 54.0402 43.6959 53 41C51.9598 38.3041 50.4073 35.6372 48 34C45.5927 32.3628 42.9238 32 40 32C37.0762 32 34.4073 32.3628 32 34C29.5927 35.6372 27.0402 38.3041 26 41C24.9598 43.6959 25.3056 47.1979 26 50C26.6944 52.8021 27.8164 55.0817 30 57C25.6493 58.9793 22.4076 61.9134 20 66H17V15H80V66ZM23 29V23C23 22.2452 22.459 21.5337 23 21C23.541 20.4663 24.235 20 25 20H72C72.765 20 73.459 20.4663 74 21C74.541 21.5337 74 22.2452 74 23V58C74 58.7548 74.541 59.4663 74 60C73.459 60.5337 72.765 61 72 61H66C65.235 61 64.541 60.5337 64 60C63.459 59.4663 63 58.7548 63 58C63 57.2452 63.459 56.5337 64 56C64.541 55.4663 65.235 55 66 55H69V26H28V29C28 29.7548 27.541 30.4663 27 31C26.459 31.5337 25.765 32 25 32C24.235 32 23.541 31.5337 23 31C22.459 30.4663 23 29.7548 23 29Z" fill="#017F36"/>
</svg>
