<svg width="90" height="90" viewBox="0 0 90 90" fill="none" xmlns="http://www.w3.org/2000/svg">
<path d="M19 0C15.2326 0 12 3.22 12 7V73C12 76.78 15.2326 80 19 80H26V90L36 83L47 90V65C46.5238 65.2755 45.5276 65.8455 45 66C44.6308 66.7985 43.6473 67.4058 43 68C42.3527 68.5942 41.8254 68.7018 41 69C40.2701 69.2391 39.7675 70.0238 39 70C38.034 70 36.8729 69.4154 36 69C35.1167 69.3869 33.9633 70.0313 33 70C32.2272 70 31.7348 69.2665 31 69C29.3351 68.3925 27.7522 67.6094 27 66C26.4738 65.8446 26.4754 65.2746 26 65V73H19V7H74V73H57C56.085 73 54.647 73.3508 54 74C53.353 74.6492 53 75.0819 53 76C53 76.9181 53.353 78.3508 54 79C54.647 79.6492 56.085 80 57 80H74C77.7674 80 81 76.78 81 73V7C81 3.22 77.7674 0 74 0H19ZM29 17C28.085 17.0858 26.5865 18.2901 26 19C25.4135 19.7099 24.9144 20.0819 25 21C25.0856 21.9181 26.2925 22.4115 27 23C27.7075 23.5885 28.085 24.0858 29 24H64C64.915 24 65.353 23.6492 66 23C66.647 22.3508 67 21.9181 67 21C67 20.0819 66.647 18.6492 66 18C65.353 17.3508 64.915 17 64 17H29C29.108 16.9949 28.892 16.9949 29 17C29.1069 16.995 28.8931 16.995 29 17ZM29 31C28.085 31.0858 26.5865 31.2901 26 32C25.4135 32.7099 24.9144 34.0819 25 35C25.0856 35.9181 26.2925 36.4115 27 37C27.7075 37.5885 28.085 38.0858 29 38H53C53.915 38 55.353 37.6492 56 37C56.647 36.3508 57 35.9181 57 35C57 34.0819 56.647 32.6492 56 32C55.353 31.3508 53.915 31 53 31H29C29.108 30.9949 28.892 30.9949 29 31C29.1069 30.995 28.8931 30.995 29 31ZM36 44C35.3072 44.0007 34.5611 43.5923 34 44C33.4389 44.4077 33.2169 45.3398 33 46C32.8585 46.0485 33.1346 45.9446 33 46C32.4169 45.6484 31.6778 45.9416 31 46C30.3222 46.0584 29.5148 46.5538 29 47C28.4788 47.4365 28.1737 47.3415 28 48C27.8263 48.6585 27.7622 49.362 28 50C27.9068 50.1419 28.0863 50.8512 28 51C27.3261 51.1126 26.4831 51.5153 26 52C25.5169 52.4847 25.1123 52.3238 25 53C24.8892 53.6585 24.7101 54.3989 25 55C25.2899 55.6011 26.4166 56.6787 27 57C27.0241 57.2181 26.9551 56.7888 27 57C26.5835 57.5088 26.0579 58.3441 26 59C25.9421 59.6559 25.679 60.4257 26 61C26.6693 62.1665 28.6579 63.1938 30 63C30.1725 63.1627 29.8102 62.8512 30 63C30.0345 64.3396 30.7304 65.5327 32 66C33.2558 66.4604 35.1203 65.9935 36 65C36.1276 65.0069 35.8689 65 36 65C36.1415 65 36.8585 65.0069 37 65C37.2979 65.3374 37.5911 65.8133 38 66C38.4089 66.1867 38.5508 65.9964 39 66C39.3726 66 39.6343 66.1315 40 66C40.6204 65.7699 41.6155 65.5401 42 65C42.3845 64.4599 41.9843 63.6635 42 63C42.1828 62.8546 42.8241 63.1627 43 63C43.6549 63.0932 44.4046 62.2892 45 62C45.5954 61.7108 45.6666 61.5732 46 61C46.3217 60.4253 46.0579 59.6566 46 59C45.9421 58.3434 46.4173 57.5091 46 57C46.0483 56.7923 45.9689 57.2112 46 57C46.5855 56.681 46.7097 55.6017 47 55C47.2903 54.3983 47.1139 53.6587 47 53C46.8882 52.3236 46.4832 52.4848 46 52C45.5168 51.5152 45.6741 51.1121 45 51C44.9172 50.8477 44.0932 50.1454 44 50C44.2396 49.3616 45.1737 48.6595 45 48C44.8263 47.3405 43.5227 47.4362 43 47C42.4851 46.5539 42.6779 46.0578 42 46C41.3221 45.9422 40.5826 45.6475 40 46C39.862 45.9446 39.1415 46.045 39 46C38.7837 45.3392 38.5612 44.4083 38 44C37.4388 43.5917 36.6932 44.001 36 44ZM36 50C39.0567 50 42 51.9331 42 55C42 58.0738 39.0602 61 36 61C35.2767 61.0041 34.6691 60.2758 34 60C33.3309 59.7242 32.5115 59.5132 32 59C31.4885 58.4868 31.2749 58.6713 31 58C30.7251 57.3287 30.9959 55.7257 31 55C31 51.9296 32.9433 50 36 50Z" fill="#017F36"/>
</svg>
